<svg width="348" height="134" fill="none" xmlns="http://www.w3.org/2000/svg"><path d="M27.84 47.8127 0 76.719V114c0 11.046 8.95431 20 20 20h298c16.569 0 30-13.431 30-30V25.0151c-1.268-.7872-3.114-1.0502-3.898-1.1118C338 23.4236 334.5 28 329.626 32.2417l-.061.0527c-1.441 1.2549-5.045 4.3944-11.632 4.3944-6.682 0-11.322-2.9647-12.807-4.4471L282.854 8.89426C279.885 5.92951 273.389 0 266.15 0c-7.238 0-12.992 5.92951-15.59 8.89426L147.552 108.405c-1.67 1.853-6.793 5.559-13.92 5.559s-12.25-3.706-13.92-5.559L60.1344 45.0332c-2.0416-2.2235-8.0179-6.6707-15.5904-6.6707-7.5725 0-14.2912 6.3001-16.704 9.4502Z" fill="url(#a)" fill-opacity=".2"/><defs><linearGradient id="a" x1="174" y1="-10" x2="174" y2="134" gradientUnits="userSpaceOnUse"><stop stop-color="#fff"/><stop offset="1" stop-color="#fff" stop-opacity="0"/></linearGradient></defs></svg>