<svg width="334" height="111" fill="none" xmlns="http://www.w3.org/2000/svg"><path d="M26.72 46.029 0 73.856V91c0 11.046 8.954 20 20 20h284c16.569 0 30-13.431 30-30V24.082c-1.217-.758-2.989-1.011-3.741-1.07-5.857-.463-9.216 3.943-13.894 8.027l-.058.05c-1.383 1.209-4.842 4.23-11.165 4.23-6.412 0-10.866-2.853-12.291-4.28L271.475 8.562C268.625 5.708 262.39 0 255.443 0c-6.947 0-12.469 5.708-14.963 8.562l-98.864 95.798c-1.603 1.784-6.52 5.351-13.36 5.351s-11.757-3.567-13.36-5.351l-57.18-61.007c-1.96-2.14-7.696-6.422-14.964-6.422-7.268 0-13.716 6.065-16.032 9.098Z" fill="url(#a)" fill-opacity=".2"/><defs><linearGradient id="a" x1="167" y1="-9.627" x2="167" y2="129" gradientUnits="userSpaceOnUse"><stop stop-color="#fff"/><stop offset="1" stop-color="#fff" stop-opacity="0"/></linearGradient></defs></svg>