<svg width="19" height="18" fill="none" xmlns="http://www.w3.org/2000/svg"><path d="M11.7788 13.0708h1.4056v2.811c0 1.1625-.9458 2.1082-2.1083 2.1082H2.60814C1.44579 17.99.5 17.0443.5 15.8818V2.10814C.5.945786 1.44579 0 2.60814 0h8.46796c1.1625 0 2.1083.945786 2.1083 2.10814v2.81099h-1.4056V2.10814c0-.38741-.3151-.70271-.7027-.70271H2.60814c-.38741 0-.70271.3153-.70271.70271V15.8818c0 .3874.3153.7027.70271.7027h8.46796c.3876 0 .7027-.3153.7027-.7027v-2.811Zm3.4084-7.38867-.9938.99385 1.6162 1.61636H6.71922v1.40543h9.09038L14.1934 11.314l.9938.9938L18.5 8.99506l-3.3128-3.31293Z" fill="#BDBDBD"/></svg>